PathFileType	4	(X/Y/Z)
DataRate	CameraRate	NumFrames	NumMarkers	Units	OrigDataRate	OrigDataStartFrame	OrigNumFrames	
	120.0	120.0	11	39	mm	120.0	141	225
Frame#	Time	midhip	hip_r	hip_l	knee_r	knee_l	ankle_r	ankle_l	midasis	asis_r	asis_l	psis_r	psis_l	epicondLat_r	epicondLat_l	epicondMed_r	epicondMed_l	malleolusLat_r	malleolusLat_l	malleolusMedv_r	malleolusMedv_l	heel_r	heel_l	sternalnotch	xyphoidprocess	neck	subclavicle_r	subclavicle_l	toe_r	toe_l	thighwand_r	thighwand_l	upperleg1_r	upperleg1_l	upperleg2_r	upperleg2_l	shankwand_r	shankwand_l	lowerleg1_r	lowerleg1_l
	X1	Y1	Z1	X2	Y2	Z2	X3	Y3	Z3	X4	Y4	Z4	X5	Y5	Z5	X6	Y6	Z6	X7	Y7	Z7	X8	Y8	Z8	X9	Y9	Z9	X10	Y10	Z10	X11	Y11	Z11	X12	Y12	Z12	X13	Y13	Z13	X14	Y14	Z14	X15	Y15	Z15	X16	Y16	Z16	X17	Y17	Z17	X18	Y18	Z18	X19	Y19	Z19	X20	Y20	Z20	X21	Y21	Z21	X22	Y22	Z22	X23	Y23	Z23	X24	Y24	Z24	X25	Y25	Z25	X26	Y26	Z26	X27	Y27	Z27	X28	Y28	Z28	X29	Y29	Z29	X30	Y30	Z30	X31	Y31	Z31	X32	Y32	Z32	X33	Y33	Z33	X34	Y34	Z34	X35	Y35	Z35	X36	Y36	Z36	X37	Y37	Z37	X38	Y38	Z38	X39	Y39	Z39

	141	1.17500	710.317	910.399	-273.356	710.207	892.037	-222.816	705.532	894.084	-329.264	702.200	479.562	-199.818	700.082	482.554	-362.867	624.706	70.063	-179.035	655.569	68.770	-357.980	777.418	996.682	-277.102	782.089	994.637	-170.748	772.748	998.726	-383.457	576.947	1003.422	-222.567	569.835	1006.144	-311.721	715.267	482.541	-141.847	704.681	487.321	-421.998	688.303	500.525	-257.899	689.014	491.547	-314.921	623.219	72.268	-141.128	651.495	68.745	-397.269	621.683	70.444	-209.585	663.270	75.511	-328.753	580.238	45.716	-190.077	609.397	45.270	-355.867	694.139	1392.057	-281.838	734.660	1191.170	-286.081	605.964	1461.709	-285.617	709.937	1392.645	-200.425	703.339	1389.367	-356.331	745.330	42.845	-183.193	783.253	42.365	-373.454	756.042	601.727	-69.789	847.315	625.384	-363.772	765.334	659.483	-143.104	771.652	685.408	-399.170	761.847	577.656	-163.740	761.457	599.215	-401.283	653.772	143.826	-77.616	767.827	173.534	-358.176	644.256	202.395	-140.385	701.964	226.353	-365.977
	142	1.18333	710.275	910.187	-273.608	710.287	892.020	-222.873	705.576	894.079	-329.318	702.262	479.568	-199.876	700.071	482.551	-362.897	624.674	70.054	-179.065	655.542	68.761	-357.984	777.439	996.698	-277.167	782.146	994.641	-170.809	772.732	998.755	-383.525	577.080	1003.308	-222.507	569.845	1006.124	-311.744	715.320	482.547	-141.903	704.674	487.314	-422.027	688.323	500.544	-257.949	688.987	491.604	-314.959	623.183	72.262	-141.159	651.472	68.732	-397.274	621.692	70.455	-209.601	663.209	75.518	-328.762	580.238	45.688	-190.098	609.393	45.273	-355.875	694.191	1391.956	-281.920	734.417	1191.014	-286.358	606.180	1461.699	-285.523	710.020	1392.448	-200.555	703.359	1389.319	-356.379	745.323	42.862	-183.199	783.231	42.328	-373.446	756.079	601.710	-69.846	847.288	625.414	-363.811	765.371	659.516	-143.172	771.650	685.448	-399.223	761.878	577.673	-163.805	761.450	599.255	-401.325	653.756	143.842	-77.639	767.828	173.550	-358.188	644.397	202.404	-140.401	701.961	226.378	-365.988
	143	1.19167	710.298	910.061	-273.877	710.358	892.002	-222.927	705.605	894.074	-329.371	702.320	479.574	-199.931	700.073	482.552	-362.919	624.653	70.051	-179.083	655.529	68.758	-357.985	777.458	996.708	-277.233	782.206	994.637	-170.874	772.709	998.778	-383.592	577.239	1003.211	-222.436	569.857	1006.111	-311.760	715.370	482.552	-141.956	704.676	487.310	-422.050	688.368	500.507	-258.015	688.938	491.617	-314.994	623.157	72.265	-141.177	651.458	68.728	-397.274	621.684	70.431	-209.632	663.212	75.504	-328.772	580.238	45.672	-190.112	609.385	45.270	-355.876	694.462	1391.774	-282.003	734.500	1190.806	-286.932	606.351	1461.693	-285.438	710.549	1392.104	-200.746	703.394	1389.266	-356.437	745.314	42.875	-183.198	783.242	42.276	-373.403	756.116	601.698	-69.896	847.269	625.438	-363.845	765.415	659.500	-143.258	771.650	685.427	-399.272	761.920	577.642	-163.881	761.434	599.248	-401.364	653.744	143.856	-77.656	767.831	173.563	-358.196	644.531	202.348	-140.408	701.970	226.359	-366.015
	144	1.20000	710.353	910.033	-274.065	710.413	891.991	-222.985	705.615	894.078	-329.426	702.369	479.573	-199.978	700.088	482.559	-362.939	624.646	70.065	-179.085	655.529	68.770	-357.984	777.477	996.712	-277.304	782.272	994.627	-170.944	772.683	998.798	-383.664	577.364	1003.167	-222.390	569.869	1006.109	-311.768	715.412	482.553	-142.002	704.685	487.312	-422.071	688.357	500.503	-258.054	688.896	491.637	-315.018	623.146	72.283	-141.180	651.454	68.738	-397.273	621.668	70.407	-209.637	663.218	75.489	-328.770	580.237	45.678	-190.119	609.377	45.259	-355.869	694.977	1391.619	-282.002	735.076	1190.679	-287.537	606.492	1461.699	-285.363	711.568	1391.812	-200.832	703.448	1389.247	-356.507	745.305	42.882	-183.196	783.289	42.214	-373.327	756.155	601.691	-69.942	847.258	625.458	-363.882	765.478	659.486	-143.326	771.671	685.412	-399.318	761.946	577.618	-163.937	761.430	599.232	-401.398	653.740	143.869	-77.672	767.836	173.571	-358.203	644.540	202.328	-140.436	701.959	226.344	-366.026
	145	1.20833	710.422	910.123	-274.099	710.449	891.992	-223.050	705.604	894.097	-329.488	702.404	479.566	-200.017	700.117	482.575	-362.960	624.650	70.096	-179.077	655.542	68.798	-357.983	777.500	996.715	-277.381	782.340	994.612	-171.020	772.659	998.819	-383.742	577.403	1003.198	-222.398	569.878	1006.122	-311.766	715.446	482.549	-142.041	704.701	487.323	-422.093	688.295	500.565	-258.067	688.970	491.647	-314.983	623.150	72.319	-141.171	651.458	68.766	-397.271	621.660	70.411	-209.627	663.216	75.510	-328.759	580.237	45.704	-190.119	609.371	45.255	-355.859	695.439	1391.566	-281.923	735.668	1190.662	-287.819	606.627	1461.726	-285.304	712.465	1391.715	-200.789	703.510	1389.254	-356.529	745.297	42.886	-183.195	783.350	42.173	-373.251	756.196	601.693	-69.987	847.252	625.480	-363.928	765.537	659.504	-143.357	771.658	685.440	-399.344	761.952	577.636	-163.968	761.443	599.242	-401.405	653.741	143.886	-77.689	767.842	173.579	-358.211	644.478	202.339	-140.446	701.930	226.365	-365.994
	146	1.21667	710.516	910.320	-274.021	710.470	892.003	-223.115	705.579	894.128	-329.551	702.426	479.555	-200.049	700.159	482.598	-362.982	624.661	70.138	-179.060	655.563	68.836	-357.982	777.523	996.720	-277.458	782.411	994.596	-171.096	772.635	998.843	-383.820	577.379	1003.281	-222.443	569.885	1006.149	-311.752	715.474	482.543	-142.074	704.725	487.341	-422.116	688.246	500.578	-258.029	689.105	491.612	-314.925	623.165	72.365	-141.155	651.468	68.803	-397.269	621.665	70.432	-209.639	663.242	75.551	-328.747	580.239	45.741	-190.113	609.368	45.262	-355.848	694.224	1391.885	-281.976	733.732	1190.802	-286.448	606.747	1461.780	-285.245	709.856	1392.268	-200.490	703.565	1389.263	-356.494	745.290	42.889	-183.195	783.370	42.223	-373.245	756.242	601.701	-70.028	847.252	625.503	-363.983	765.575	659.518	-143.376	771.613	685.454	-399.344	761.957	577.642	-163.970	761.453	599.256	-401.396	653.747	143.905	-77.707	767.849	173.585	-358.221	644.367	202.351	-140.433	701.915	226.392	-365.962
	147	1.22500	710.613	910.533	-273.939	710.487	892.016	-223.174	705.545	894.160	-329.608	702.446	479.540	-200.077	700.210	482.620	-362.999	624.679	70.177	-179.041	655.589	68.873	-357.981	777.547	996.720	-277.533	782.486	994.578	-171.172	772.608	998.862	-383.893	577.356	1003.376	-222.485	569.889	1006.185	-311.724	715.501	482.532	-142.104	704.755	487.359	-422.135	688.248	500.543	-258.029	689.141	491.618	-314.942	623.188	72.408	-141.136	651.481	68.839	-397.267	621.663	70.459	-209.679	663.281	75.602	-328.750	580.242	45.778	-190.106	609.371	45.263	-355.836	694.432	1391.750	-282.033	733.740	1190.640	-287.010	606.851	1461.842	-285.177	710.230	1391.945	-200.644	703.620	1389.278	-356.510	745.285	42.888	-183.195	783.329	42.382	-373.339	756.294	601.710	-70.068	847.261	625.523	-364.043	765.632	659.509	-143.443	771.599	685.461	-399.390	761.991	577.619	-164.009	761.452	599.275	-401.436	653.760	143.920	-77.724	767.859	173.586	-358.228	644.297	202.351	-140.442	701.962	226.427	-366.002
	148	1.23333	710.687	910.690	-273.903	710.503	892.020	-223.227	705.505	894.179	-329.658	702.462	479.512	-200.103	700.267	482.631	-363.013	624.700	70.202	-179.027	655.619	68.894	-357.981	777.569	996.708	-277.607	782.564	994.550	-171.250	772.575	998.866	-383.965	577.359	1003.452	-222.507	569.893	1006.223	-311.687	715.531	482.507	-142.133	704.791	487.366	-422.151	688.254	500.545	-258.098	689.070	491.714	-315.003	623.217	72.436	-141.122	651.498	68.861	-397.265	621.655	70.497	-209.716	663.322	75.649	-328.766	580.246	45.807	-190.101	609.377	45.260	-355.826	694.651	1391.701	-282.079	733.908	1190.588	-287.335	606.954	1461.895	-285.121	710.624	1391.814	-200.728	703.678	1389.299	-356.575	745.284	42.878	-183.197	783.262	42.571	-373.478	756.358	601.707	-70.108	847.279	625.530	-364.107	765.702	659.504	-143.545	771.618	685.499	-399.507	762.036	577.612	-164.101	761.439	599.307	-401.522	653.782	143.923	-77.743	767.871	173.577	-358.232	644.261	202.367	-140.470	702.032	226.476	-366.075
	149	1.24167	710.727	910.758	-273.914	710.522	892.008	-223.275	705.462	894.178	-329.703	702.481	479.469	-200.132	700.326	482.620	-363.025	624.723	70.198	-179.025	655.649	68.887	-357.981	777.590	996.680	-277.686	782.647	994.512	-171.333	772.534	998.848	-384.039	577.394	1003.498	-222.504	569.900	1006.252	-311.652	715.563	482.466	-142.165	704.831	487.352	-422.166	688.230	500.580	-258.166	689.120	491.710	-314.995	623.248	72.433	-141.119	651.516	68.854	-397.265	621.685	70.510	-209.719	663.375	75.656	-328.764	580.250	45.817	-190.101	609.386	45.259	-355.822	694.814	1391.675	-282.056	733.988	1190.548	-287.401	607.081	1461.937	-285.085	710.901	1391.769	-200.713	703.735	1389.282	-356.579	745.291	42.859	-183.203	783.212	42.698	-373.594	756.431	601.682	-70.153	847.302	625.520	-364.179	765.744	659.490	-143.585	771.605	685.496	-399.559	762.062	577.603	-164.173	761.436	599.302	-401.560	653.816	143.908	-77.765	767.888	173.557	-358.239	644.183	202.408	-140.500	702.042	226.472	-366.076
	150	1.25000	710.744	910.742	-273.972	710.549	891.980	-223.316	705.420	894.155	-329.740	702.503	479.416	-200.165	700.384	482.585	-363.035	624.746	70.153	-179.036	655.676	68.848	-357.981	777.609	996.636	-277.766	782.734	994.462	-171.420	772.484	998.810	-384.112	577.461	1003.506	-222.470	569.911	1006.264	-311.628	715.601	482.413	-142.202	704.876	487.314	-422.176	688.237	500.562	-258.197	689.364	491.520	-314.923	623.280	72.388	-141.131	651.534	68.816	-397.263	621.743	70.457	-209.695	663.443	75.602	-328.747	580.255	45.799	-190.106	609.395	45.252	-355.819	694.868	1391.609	-282.010	733.842	1190.443	-287.348	607.217	1461.951	-285.046	710.947	1391.688	-200.656	703.794	1389.206	-356.541	745.309	42.834	-183.213	783.193	42.728	-373.655	756.511	601.633	-70.203	847.327	625.492	-364.255	765.795	659.414	-143.574	771.531	685.412	-399.534	762.103	577.545	-164.194	761.461	599.223	-401.542	653.859	143.872	-77.788	767.909	173.525	-358.245	644.148	202.432	-140.554	702.027	226.374	-366.016
	151	1.25833	710.738	910.641	-274.072	710.584	891.937	-223.349	705.382	894.117	-329.770	702.529	479.361	-200.201	700.442	482.529	-363.038	624.757	70.073	-179.059	655.699	68.780	-357.979	777.625	996.582	-277.843	782.824	994.404	-171.507	772.427	998.760	-384.180	577.561	1003.478	-222.407	569.929	1006.256	-311.615	715.642	482.357	-142.241	704.920	487.256	-422.181	688.327	500.479	-258.267	689.502	491.383	-314.913	623.301	72.307	-141.153	651.548	68.749	-397.260	621.759	70.352	-209.691	663.498	75.502	-328.745	580.261	45.754	-190.115	609.400	45.234	-355.818	694.937	1391.523	-282.037	733.779	1190.331	-287.384	607.314	1461.938	-284.986	711.025	1391.590	-200.691	703.853	1389.115	-356.563	745.332	42.804	-183.225	783.203	42.669	-373.659	756.595	601.563	-70.255	847.354	625.452	-364.327	765.878	659.311	-143.612	771.517	685.320	-399.582	762.188	577.447	-164.247	761.499	599.113	-401.575	653.906	143.822	-77.810	767.934	173.481	-358.243	644.361	202.317	-140.592	702.056	226.235	-366.009
